<svg height="512" viewBox="0 0 64 64" width="512" xmlns="http://www.w3.org/2000/svg"><path d="m59.95 11.281a7.007 7.007 0 0 0 -9.9 0l-2.05 2.05v-8.331a3 3 0 0 0 -3-3h-40a3 3 0 0 0 -3 3v54a3 3 0 0 0 3 3h40a3 3 0 0 0 3-3v-25.87l11.95-11.95a7.008 7.008 0 0 0 0-9.899zm-39.307 37.061 2.246 2.246-3.182.935zm4.431 1.6-3.788-3.789 1.285-4.372 6.875 6.875zm5.884-2.6-7.071-7.071 21.213-21.212 7.071 7.071zm15.557-29.7 1.414-1.415 7.071 7.073-1.414 1.414zm-10.515-13.642h4v7l-1.2-1.6a1.036 1.036 0 0 0 -1.6 0l-1.2 1.6zm10 55a1 1 0 0 1 -1 1h-40a1 1 0 0 1 -1-1v-54a1 1 0 0 1 1-1h29v10a1 1 0 0 0 1.8.6l2.2-2.933 2.2 2.933a1 1 0 0 0 .8.4 1.019 1.019 0 0 0 .316-.051 1 1 0 0 0 .684-.949v-10h3a1 1 0 0 1 1 1v10.331l-24.941 24.941a1 1 0 0 0 -.252.425l-3.536 12.021a1 1 0 0 0 .959 1.282.979.979 0 0 0 .283-.041l12.021-3.535a1 1 0 0 0 .424-.253l15.042-15.041zm10.414-37.112-7.071-7.072 2.121-2.116a5 5 0 0 1 7.072 7.071z"/></svg>