<svg height="512" viewBox="0 0 64 64" width="512" xmlns="http://www.w3.org/2000/svg"><g id="Paper-2" data-name="Paper"><rect fill="#e6e7e8" height="58" rx="2" width="44" x="3" y="3"/><path d="m59.24 11.99a5.981 5.981 0 0 1 0 8.48l-2.83 2.83-8.48-8.48 2.83-2.83a5.987 5.987 0 0 1 8.48 0z" fill="#e6e7e8"/><path d="m47.93 14.82-.93.93-1.89 1.9 1.89 1.89 6.59 6.59 2.82-2.83z" fill="#d1d3d4"/><path d="m47 19.54-1.89-1.89-22.63 22.63 8.48 8.48 16.04-16.05 6.59-6.58z" fill="#ff9811"/><path d="m22.48 40.28 8.48 8.48-.71.7-5.46 1.61-4.63-4.62 1.61-5.47z" fill="#acabb1"/><path d="m24.79 51.07-6.56 1.93 1.93-6.55z" fill="#787680"/><path d="m30.96 48.76 16.04-16.05v3l-14.04 14.05-.71.7-5.46 1.61-6.56 1.93.51-1.74 4.05-1.19 5.46-1.61z" fill="#d1d3d4"/><path d="m41 3v11l-3-4-3 4v-11z" fill="#ff5023"/></g></svg>